<?xml version="1.0" encoding="UTF-8"?>
<!DOCTYPE svg PUBLIC "-//W3C//DTD SVG 1.1//EN" "http://www.w3.org/Graphics/SVG/1.1/DTD/svg11.dtd">
<svg xmlns="http://www.w3.org/2000/svg" version="1.1" width="889px" height="272px" style="shape-rendering:geometricPrecision; text-rendering:geometricPrecision; image-rendering:optimizeQuality; fill-rule:evenodd; clip-rule:evenodd" xmlns:xlink="http://www.w3.org/1999/xlink">
<g><path style="opacity:0.6" fill="#364752" d="M 145.5,84.5 C 145.027,85.9063 144.027,86.573 142.5,86.5C 142.973,85.0937 143.973,84.427 145.5,84.5 Z"/></g>
<g><path style="opacity:1" fill="#3890cc" d="M 148.5,124.5 C 146.85,118.062 145.85,111.395 145.5,104.5C 145.027,103.094 144.027,102.427 142.5,102.5C 141.508,102.672 140.842,102.338 140.5,101.5C 140.027,100.094 139.027,99.427 137.5,99.5C 135.847,99.3404 134.514,98.6737 133.5,97.5C 133.027,96.0937 132.027,95.427 130.5,95.5C 128.972,95.4827 128.472,94.816 129,93.5C 130.993,92.086 133.16,91.086 135.5,90.5C 137.027,90.573 138.027,89.9063 138.5,88.5C 140.027,88.573 141.027,87.9063 141.5,86.5C 141.833,86.5 142.167,86.5 142.5,86.5C 144.027,86.573 145.027,85.9063 145.5,84.5C 145.56,83.9569 145.893,83.6236 146.5,83.5C 152.383,86.693 158.216,90.0263 164,93.5C 164.667,100.833 164.667,108.167 164,115.5C 158.925,118.76 153.759,121.76 148.5,124.5 Z"/></g>
<g><path style="opacity:0.667" fill="#384957" d="M 141.5,86.5 C 141.027,87.9063 140.027,88.573 138.5,88.5C 138.973,87.0937 139.973,86.427 141.5,86.5 Z"/></g>
<g><path style="opacity:1" fill="#3883ba" d="M 266.5,87.5 C 267.833,131.167 267.833,174.833 266.5,218.5C 265.167,218.5 263.833,218.5 262.5,218.5C 262.5,174.833 262.5,131.167 262.5,87.5C 263.833,87.5 265.167,87.5 266.5,87.5 Z"/></g>
<g><path style="opacity:0.675" fill="#3e5463" d="M 138.5,88.5 C 138.027,89.9063 137.027,90.573 135.5,90.5C 135.973,89.0937 136.973,88.427 138.5,88.5 Z"/></g>
<g><path style="opacity:0.745" fill="#4f84a8" d="M 266.5,87.5 C 265.167,87.5 263.833,87.5 262.5,87.5C 262.5,131.167 262.5,174.833 262.5,218.5C 263.833,218.5 265.167,218.5 266.5,218.5C 265.081,219.451 263.415,219.784 261.5,219.5C 261.5,175.167 261.5,130.833 261.5,86.5C 263.415,86.2155 265.081,86.5489 266.5,87.5 Z"/></g>
<g><path style="opacity:0.384" fill="#34424b" d="M 130.5,95.5 C 132.027,95.427 133.027,96.0937 133.5,97.5C 131.973,97.573 130.973,96.9063 130.5,95.5 Z"/></g>
<g><path style="opacity:0.337" fill="#32414b" d="M 137.5,99.5 C 139.027,99.427 140.027,100.094 140.5,101.5C 138.973,101.573 137.973,100.906 137.5,99.5 Z"/></g>
<g><path style="opacity:0.322" fill="#32404a" d="M 142.5,102.5 C 144.027,102.427 145.027,103.094 145.5,104.5C 143.973,104.573 142.973,103.906 142.5,102.5 Z"/></g>
<g><path style="opacity:0.156" fill="#222527" d="M 362.5,105.5 C 352.448,105.216 342.448,105.55 332.5,106.5C 332.611,105.883 332.944,105.383 333.5,105C 343.342,104.175 353.009,104.342 362.5,105.5 Z"/></g>
<g><path style="opacity:1" fill="#3793d2" d="M 362.5,105.5 C 363.496,105.414 364.329,105.748 365,106.5C 371.061,118.619 376.561,130.952 381.5,143.5C 381.12,145.698 381.787,147.365 383.5,148.5C 385.341,150.849 386.674,153.515 387.5,156.5C 387.12,158.698 387.787,160.365 389.5,161.5C 391.105,164.378 392.439,167.378 393.5,170.5C 393.166,173.491 394.166,175.824 396.5,177.5C 396.34,179.199 396.506,180.866 397,182.5C 397.383,181.944 397.883,181.611 398.5,181.5C 399.811,183.56 399.811,185.726 398.5,188C 389.833,188.667 381.167,188.667 372.5,188C 369.698,183.776 367.365,179.276 365.5,174.5C 353.5,173.167 341.5,173.167 329.5,174.5C 328.048,177.737 326.881,181.07 326,184.5C 324.833,185.667 323.667,186.833 322.5,188C 314.167,188.667 305.833,188.667 297.5,188C 296.395,184.477 297.061,181.31 299.5,178.5C 301.969,177.393 302.969,175.393 302.5,172.5C 305.281,165.286 308.281,158.286 311.5,151.5C 312.906,151.027 313.573,150.027 313.5,148.5C 313.232,146.901 313.566,145.568 314.5,144.5C 316.969,143.393 317.969,141.393 317.5,138.5C 319.821,136.91 320.821,134.577 320.5,131.5C 321.561,128.378 322.895,125.378 324.5,122.5C 326.213,121.365 326.88,119.698 326.5,117.5C 327.906,117.027 328.573,116.027 328.5,114.5C 328.794,111.246 330.127,108.579 332.5,106.5C 342.448,105.55 352.448,105.216 362.5,105.5 Z M 347.5,131.5 C 348.167,132.167 348.833,132.833 349.5,133.5C 351.835,139.517 354.169,145.517 356.5,151.5C 350.5,152.833 344.5,152.833 338.5,151.5C 342.094,145.173 345.094,138.506 347.5,131.5 Z"/></g>
<g><path style="opacity:1" fill="#3794d4" d="M 433.5,107.5 C 433.5,127.5 433.5,147.5 433.5,167.5C 448.833,167.5 464.167,167.5 479.5,167.5C 480.492,167.328 481.158,167.662 481.5,168.5C 482.407,174.106 482.74,179.773 482.5,185.5C 482.586,186.496 482.252,187.329 481.5,188C 457.5,188.667 433.5,188.667 409.5,188C 409,187.5 408.5,187 408,186.5C 407.333,159.833 407.333,133.167 408,106.5C 408.75,105.874 409.584,105.374 410.5,105C 417.833,104.333 425.167,104.333 432.5,105C 433.252,105.671 433.586,106.504 433.5,107.5 Z"/></g>
<g><path style="opacity:1" fill="#3793d2" d="M 565.5,167.5 C 567.355,173.252 568.022,179.252 567.5,185.5C 567.586,186.496 567.252,187.329 566.5,188C 542.5,188.667 518.5,188.667 494.5,188C 493.944,187.617 493.611,187.117 493.5,186.5C 493.333,160.165 493.5,133.831 494,107.5C 494.717,106.956 495.217,106.289 495.5,105.5C 502.655,104.345 509.988,104.178 517.5,105C 518,105.5 518.5,106 519,106.5C 519.5,126.497 519.667,146.497 519.5,166.5C 534.911,166.183 550.245,166.517 565.5,167.5 Z"/></g>
<g><path style="opacity:1" fill="#3594d6" d="M 654.5,105.5 C 655.418,111.775 655.751,118.108 655.5,124.5C 655.5,125.167 655.167,125.5 654.5,125.5C 637.5,125.5 620.5,125.5 603.5,125.5C 603.5,130.5 603.5,135.5 603.5,140.5C 616.833,140.5 630.167,140.5 643.5,140.5C 644.458,140.953 645.292,141.619 646,142.5C 646.667,147.833 646.667,153.167 646,158.5C 645.292,159.381 644.458,160.047 643.5,160.5C 630.167,160.5 616.833,160.5 603.5,160.5C 603.5,169.5 603.5,178.5 603.5,187.5C 603.167,187.5 602.833,187.5 602.5,187.5C 594.445,187.77 586.445,187.437 578.5,186.5C 578.333,160.165 578.5,133.831 579,107.5C 579.717,106.956 580.217,106.289 580.5,105.5C 605.167,104.167 629.833,104.167 654.5,105.5 Z"/></g>
<g><path style="opacity:1" fill="#3692d2" d="M 719.5,107.5 C 719.427,109.027 720.094,110.027 721.5,110.5C 723.403,113.53 724.737,116.863 725.5,120.5C 725.427,122.027 726.094,123.027 727.5,123.5C 729.497,128.162 731.497,132.829 733.5,137.5C 733.12,139.698 733.787,141.365 735.5,142.5C 737.343,144.853 738.677,147.52 739.5,150.5C 739.12,152.698 739.787,154.365 741.5,155.5C 745.618,164.409 749.785,173.409 754,182.5C 754.798,184.259 754.631,185.926 753.5,187.5C 744.882,188.637 736.215,188.804 727.5,188C 723.754,183.857 721.421,179.023 720.5,173.5C 714.509,172.834 708.343,172.5 702,172.5C 695.462,172.504 689.295,173.17 683.5,174.5C 683.248,178.327 681.915,181.66 679.5,184.5C 677.586,185.185 675.586,185.685 673.5,186C 674.5,186.333 675.5,186.667 676.5,187C 668.507,187.5 660.507,187.666 652.5,187.5C 651.387,186.054 651.22,184.387 652,182.5C 656.215,173.409 660.382,164.409 664.5,155.5C 666.213,154.365 666.88,152.698 666.5,150.5C 671.28,139.282 676.28,128.282 681.5,117.5C 683.834,115.824 684.834,113.491 684.5,110.5C 685.203,108.284 686.536,106.451 688.5,105C 698.167,104.333 707.833,104.333 717.5,105C 718.381,105.708 719.047,106.542 719.5,107.5 Z M 703.5,131.5 C 705.07,137.891 707.404,143.891 710.5,149.5C 710.5,150.5 710.5,151.5 710.5,152.5C 704.642,152.822 698.975,152.489 693.5,151.5C 696.927,145.569 699.594,139.236 701.5,132.5C 702.167,132.167 702.833,131.833 703.5,131.5 Z"/></g>
<g><path style="opacity:0.089" fill="#151617" d="M 145.5,104.5 C 145.85,111.395 146.85,118.062 148.5,124.5C 147.791,125.404 146.791,125.737 145.5,125.5C 145.5,118.5 145.5,111.5 145.5,104.5 Z"/></g>
<g><path style="opacity:0.278" fill="#2f3941" d="M 107.5,108.5 C 105.784,108.629 104.117,108.962 102.5,109.5C 103.879,107.403 105.545,107.07 107.5,108.5 Z"/></g>
<g><path style="opacity:1" fill="#378eca" d="M 107.5,108.5 C 113.346,110.841 118.846,113.841 124,117.5C 124.667,124.5 124.667,131.5 124,138.5C 118.946,141.727 113.779,144.727 108.5,147.5C 107.167,140.833 105.833,134.167 104.5,127.5C 103.508,127.672 102.842,127.338 102.5,126.5C 102.027,125.094 101.027,124.427 99.5,124.5C 99.0269,123.094 98.0269,122.427 96.5,122.5C 94.1815,122.008 92.1815,121.008 90.5,119.5C 89.5291,118.038 89.8624,116.705 91.5,115.5C 92.6049,114.4 93.9382,113.733 95.5,113.5C 97.0269,113.573 98.0269,112.906 98.5,111.5C 99.5137,110.326 100.847,109.66 102.5,109.5C 104.117,108.962 105.784,108.629 107.5,108.5 Z"/></g>
<g><path style="opacity:1" fill="#3791cf" d="M 203.5,116.5 C 204.464,123.746 204.797,131.08 204.5,138.5C 199.151,142.267 193.651,145.934 188,149.5C 187.601,149.272 187.435,148.938 187.5,148.5C 188.128,141.087 187.461,134.087 185.5,127.5C 185.027,126.094 184.027,125.427 182.5,125.5C 181.508,125.672 180.842,125.338 180.5,124.5C 180.027,123.094 179.027,122.427 177.5,122.5C 175.847,122.34 174.514,121.674 173.5,120.5C 173.027,119.094 172.027,118.427 170.5,118.5C 170.833,117.833 171.167,117.167 171.5,116.5C 171.842,115.662 172.508,115.328 173.5,115.5C 175.027,115.573 176.027,114.906 176.5,113.5C 176.842,112.662 177.508,112.328 178.5,112.5C 180.027,112.573 181.027,111.906 181.5,110.5C 183.688,108.245 186.354,107.411 189.5,108C 194.064,111.11 198.731,113.944 203.5,116.5 Z"/></g>
<g><path style="opacity:0.318" fill="#33404a" d="M 719.5,107.5 C 720.906,107.973 721.573,108.973 721.5,110.5C 720.094,110.027 719.427,109.027 719.5,107.5 Z"/></g>
<g><path style="opacity:0.729" fill="#3e5566" d="M 181.5,110.5 C 181.027,111.906 180.027,112.573 178.5,112.5C 178.973,111.094 179.973,110.427 181.5,110.5 Z"/></g>
<g><path style="opacity:0.571" fill="#475f70" d="M 654.5,105.5 C 655.117,105.611 655.617,105.944 656,106.5C 656.819,112.681 656.653,118.681 655.5,124.5C 655.751,118.108 655.418,111.775 654.5,105.5 Z"/></g>
<g><path style="opacity:0.58" fill="#34424c" d="M 98.5,111.5 C 98.0269,112.906 97.0269,113.573 95.5,113.5C 95.9731,112.094 96.9731,111.427 98.5,111.5 Z"/></g>
<g><path style="opacity:0.969" fill="#3b5a72" d="M 684.5,110.5 C 684.834,113.491 683.834,115.824 681.5,117.5C 681.935,114.843 682.935,112.509 684.5,110.5 Z"/></g>
<g><path style="opacity:0.612" fill="#364551" d="M 176.5,113.5 C 176.027,114.906 175.027,115.573 173.5,115.5C 173.973,114.094 174.973,113.427 176.5,113.5 Z"/></g>
<g><path style="opacity:0.278" fill="#313d45" d="M 328.5,114.5 C 328.573,116.027 327.906,117.027 326.5,117.5C 326.427,115.973 327.094,114.973 328.5,114.5 Z"/></g>
<g><path style="opacity:0.714" fill="#364754" d="M 91.5,115.5 C 89.8624,116.705 89.5291,118.038 90.5,119.5C 86.8585,118.013 87.1919,116.679 91.5,115.5 Z"/></g>
<g><path style="opacity:0.475" fill="#35424b" d="M 171.5,116.5 C 171.167,117.167 170.833,117.833 170.5,118.5C 168.207,117.699 168.54,117.032 171.5,116.5 Z"/></g>
<g><path style="opacity:0.427" fill="#43535e" d="M 203.5,116.5 C 204.822,119.768 205.489,123.435 205.5,127.5C 205.499,131.349 205.165,135.016 204.5,138.5C 204.797,131.08 204.464,123.746 203.5,116.5 Z"/></g>
<g><path style="opacity:0.431" fill="#384955" d="M 170.5,118.5 C 172.027,118.427 173.027,119.094 173.5,120.5C 171.973,120.573 170.973,119.906 170.5,118.5 Z"/></g>
<g><path style="opacity:0.753" fill="#364856" d="M 326.5,117.5 C 326.88,119.698 326.213,121.365 324.5,122.5C 324.796,120.597 325.463,118.93 326.5,117.5 Z"/></g>
<g><path style="opacity:0.184" fill="#2a333b" d="M 725.5,120.5 C 726.906,120.973 727.573,121.973 727.5,123.5C 726.094,123.027 725.427,122.027 725.5,120.5 Z"/></g>
<g><path style="opacity:0.522" fill="#3c5262" d="M 96.5,122.5 C 98.0269,122.427 99.0269,123.094 99.5,124.5C 97.9731,124.573 96.9731,123.906 96.5,122.5 Z"/></g>
<g><path style="opacity:0.416" fill="#374a57" d="M 177.5,122.5 C 179.027,122.427 180.027,123.094 180.5,124.5C 178.973,124.573 177.973,123.906 177.5,122.5 Z"/></g>
<g><path style="opacity:0.424" fill="#3a4d5b" d="M 99.5,124.5 C 101.027,124.427 102.027,125.094 102.5,126.5C 100.973,126.573 99.9731,125.906 99.5,124.5 Z"/></g>
<g><path style="opacity:0.373" fill="#364754" d="M 182.5,125.5 C 184.027,125.427 185.027,126.094 185.5,127.5C 183.973,127.573 182.973,126.906 182.5,125.5 Z"/></g>
<g><path style="opacity:0.698" fill="#3c5363" d="M 654.5,125.5 C 638.008,126.497 621.342,126.83 604.5,126.5C 604.5,130.833 604.5,135.167 604.5,139.5C 617.677,139.171 630.677,139.505 643.5,140.5C 630.167,140.5 616.833,140.5 603.5,140.5C 603.5,135.5 603.5,130.5 603.5,125.5C 620.5,125.5 637.5,125.5 654.5,125.5 Z"/></g>
<g><path style="opacity:0.867" fill="#3c5a70" d="M 347.5,131.5 C 347.56,130.957 347.893,130.624 348.5,130.5C 349.386,131.325 349.719,132.325 349.5,133.5C 348.833,132.833 348.167,132.167 347.5,131.5 Z"/></g>
<g><path style="opacity:0.125" fill="#1f2123" d="M 703.5,131.5 C 702.833,131.833 702.167,132.167 701.5,132.5C 701.711,130.576 702.377,130.243 703.5,131.5 Z"/></g>
<g><path style="opacity:0.728" fill="#4d7b9b" d="M 104.5,127.5 C 105.833,134.167 107.167,140.833 108.5,147.5C 107.828,148.267 106.995,148.934 106,149.5C 105.799,142.088 105.299,134.754 104.5,127.5 Z"/></g>
<g><path style="opacity:0.655" fill="#3a4c59" d="M 145.5,131.5 C 145.027,132.906 144.027,133.573 142.5,133.5C 142.973,132.094 143.973,131.427 145.5,131.5 Z"/></g>
<g><path style="opacity:1" fill="#3790cd" d="M 160.5,138.5 C 160.75,139.922 161.583,140.922 163,141.5C 163.5,148.492 163.666,155.492 163.5,162.5C 158.674,165.748 153.674,168.748 148.5,171.5C 146.85,165.062 145.85,158.395 145.5,151.5C 140.554,149.197 135.887,146.531 131.5,143.5C 130.167,142.167 130.167,140.833 131.5,139.5C 134.999,137.25 138.665,135.25 142.5,133.5C 144.027,133.573 145.027,132.906 145.5,131.5C 145.56,130.957 145.893,130.624 146.5,130.5C 151.261,133.208 155.928,135.874 160.5,138.5 Z"/></g>
<g><path style="opacity:0.491" fill="#4b6171" d="M 495.5,105.5 C 495.217,106.289 494.717,106.956 494,107.5C 493.5,133.831 493.333,160.165 493.5,186.5C 492.336,160.003 492.17,133.336 493,106.5C 493.671,105.748 494.504,105.414 495.5,105.5 Z"/></g>
<g><path style="opacity:0.38" fill="#41505a" d="M 580.5,105.5 C 580.217,106.289 579.717,106.956 579,107.5C 578.5,133.831 578.333,160.165 578.5,186.5C 577.336,160.003 577.17,133.336 578,106.5C 578.671,105.748 579.504,105.414 580.5,105.5 Z"/></g>
<g><path style="opacity:0.98" fill="#416e90" d="M 320.5,131.5 C 320.821,134.577 319.821,136.91 317.5,138.5C 318.264,135.982 319.264,133.649 320.5,131.5 Z"/></g>
<g><path style="opacity:0.181" fill="#262a2c" d="M 185.5,127.5 C 187.461,134.087 188.128,141.087 187.5,148.5C 186.801,141.6 186.134,134.6 185.5,127.5 Z"/></g>
<g><path style="opacity:0.871" fill="#3d5a6f" d="M 733.5,137.5 C 734.537,138.93 735.204,140.597 735.5,142.5C 733.787,141.365 733.12,139.698 733.5,137.5 Z"/></g>
<g><path style="opacity:0.769" fill="#3c505f" d="M 131.5,139.5 C 130.167,140.833 130.167,142.167 131.5,143.5C 127.5,142.167 127.5,140.833 131.5,139.5 Z"/></g>
<g><path style="opacity:0.703" fill="#4c7591" d="M 160.5,138.5 C 161.721,139.028 162.887,139.695 164,140.5C 164.822,148.012 164.655,155.345 163.5,162.5C 163.666,155.492 163.5,148.492 163,141.5C 161.583,140.922 160.75,139.922 160.5,138.5 Z"/></g>
<g><path style="opacity:0.961" fill="#406b8c" d="M 317.5,138.5 C 317.969,141.393 316.969,143.393 314.5,144.5C 314.992,142.181 315.992,140.181 317.5,138.5 Z"/></g>
<g><path style="opacity:0.847" fill="#3b5569" d="M 381.5,143.5 C 382.537,144.93 383.204,146.597 383.5,148.5C 381.787,147.365 381.12,145.698 381.5,143.5 Z"/></g>
<g><path style="opacity:0.302" fill="#334049" d="M 313.5,148.5 C 313.573,150.027 312.906,151.027 311.5,151.5C 311.427,149.973 312.094,148.973 313.5,148.5 Z"/></g>
<g><path style="opacity:0.015" fill="#0e1011" d="M 710.5,149.5 C 711.434,150.568 711.768,151.901 711.5,153.5C 705.132,153.83 698.798,153.496 692.5,152.5C 692.624,151.893 692.957,151.56 693.5,151.5C 698.975,152.489 704.642,152.822 710.5,152.5C 710.5,151.5 710.5,150.5 710.5,149.5 Z"/></g>
<g><path style="opacity:0.015" fill="#0d0e0f" d="M 338.5,151.5 C 344.5,152.833 350.5,152.833 356.5,151.5C 357.043,151.56 357.376,151.893 357.5,152.5C 350.833,153.833 344.167,153.833 337.5,152.5C 337.624,151.893 337.957,151.56 338.5,151.5 Z"/></g>
<g><path style="opacity:0.769" fill="#394e5d" d="M 666.5,150.5 C 666.88,152.698 666.213,154.365 664.5,155.5C 664.796,153.597 665.463,151.93 666.5,150.5 Z"/></g>
<g><path style="opacity:0.733" fill="#354755" d="M 739.5,150.5 C 740.537,151.93 741.204,153.597 741.5,155.5C 739.787,154.365 739.12,152.698 739.5,150.5 Z"/></g>
<g><path style="opacity:0.471" fill="#3b4c59" d="M 189.5,155.5 C 187.435,155.517 185.435,155.85 183.5,156.5C 184.134,155.053 185.301,154.387 187,154.5C 188.07,154.528 188.903,154.861 189.5,155.5 Z"/></g>
<g><path style="opacity:0.612" fill="#374652" d="M 103.5,155.5 C 103.027,156.906 102.027,157.573 100.5,157.5C 100.973,156.094 101.973,155.427 103.5,155.5 Z"/></g>
<g><path style="opacity:1" fill="#378fcc" d="M 110.5,156.5 C 111.035,158.446 112.368,159.446 114.5,159.5C 118.008,160.504 121.174,162.171 124,164.5C 124.667,171.5 124.667,178.5 124,185.5C 120.021,188.238 115.855,190.571 111.5,192.5C 109.833,192.5 108.167,192.5 106.5,192.5C 106.666,186.491 106.499,180.491 106,174.5C 104.951,172.893 103.451,172.227 101.5,172.5C 101.167,172.5 100.833,172.5 100.5,172.5C 100.027,171.094 99.0269,170.427 97.5,170.5C 96.5084,170.672 95.8417,170.338 95.5,169.5C 95.0269,168.094 94.0269,167.427 92.5,167.5C 91.5084,167.672 90.8417,167.338 90.5,166.5C 89.5291,165.038 89.8624,163.705 91.5,162.5C 93.1815,160.992 95.1815,159.992 97.5,159.5C 99.0269,159.573 100.027,158.906 100.5,157.5C 102.027,157.573 103.027,156.906 103.5,155.5C 105.97,154.122 108.304,154.455 110.5,156.5 Z"/></g>
<g><path style="opacity:1" fill="#3890cd" d="M 189.5,155.5 C 193.191,157.541 196.858,159.541 200.5,161.5C 201.035,163.446 202.368,164.446 204.5,164.5C 205.655,171.321 205.821,178.321 205,185.5C 199.225,188.97 193.392,192.303 187.5,195.5C 187.666,188.492 187.5,181.492 187,174.5C 186.329,173.748 185.496,173.414 184.5,173.5C 182.847,173.34 181.514,172.674 180.5,171.5C 180.027,170.094 179.027,169.427 177.5,169.5C 175.181,169.008 173.181,168.008 171.5,166.5C 170.167,165.5 170.167,164.5 171.5,163.5C 173.027,163.573 174.027,162.906 174.5,161.5C 175.514,160.326 176.847,159.66 178.5,159.5C 180.027,159.573 181.027,158.906 181.5,157.5C 181.842,156.662 182.508,156.328 183.5,156.5C 185.435,155.85 187.435,155.517 189.5,155.5 Z"/></g>
<g><path style="opacity:0.792" fill="#324757" d="M 110.5,156.5 C 112.23,157.026 113.564,158.026 114.5,159.5C 112.368,159.446 111.035,158.446 110.5,156.5 Z"/></g>
<g><path style="opacity:0.702" fill="#3c5465" d="M 100.5,157.5 C 100.027,158.906 99.0269,159.573 97.5,159.5C 97.9731,158.094 98.9731,157.427 100.5,157.5 Z"/></g>
<g><path style="opacity:0.624" fill="#374853" d="M 181.5,157.5 C 181.027,158.906 180.027,159.573 178.5,159.5C 178.973,158.094 179.973,157.427 181.5,157.5 Z"/></g>
<g><path style="opacity:0.706" fill="#344451" d="M 387.5,156.5 C 388.537,157.93 389.204,159.597 389.5,161.5C 387.787,160.365 387.12,158.698 387.5,156.5 Z"/></g>
<g><path style="opacity:0.098" fill="#161718" d="M 145.5,151.5 C 145.85,158.395 146.85,165.062 148.5,171.5C 147.791,172.404 146.791,172.737 145.5,172.5C 145.5,165.5 145.5,158.5 145.5,151.5 Z"/></g>
<g><path style="opacity:0.682" fill="#3c5261" d="M 174.5,161.5 C 174.027,162.906 173.027,163.573 171.5,163.5C 171.973,162.094 172.973,161.427 174.5,161.5 Z"/></g>
<g><path style="opacity:0.851" fill="#354c5e" d="M 200.5,161.5 C 202.23,162.026 203.564,163.026 204.5,164.5C 202.368,164.446 201.035,163.446 200.5,161.5 Z"/></g>
<g><path style="opacity:0.78" fill="#374d5c" d="M 91.5,162.5 C 89.8624,163.705 89.5291,165.038 90.5,166.5C 86.8585,165.013 87.1919,163.679 91.5,162.5 Z"/></g>
<g><path style="opacity:0.286" fill="#30383e" d="M 171.5,163.5 C 170.167,164.5 170.167,165.5 171.5,166.5C 168.833,165.5 168.833,164.5 171.5,163.5 Z"/></g>
<g><path style="opacity:0.075" fill="#212528" d="M 433.5,107.5 C 434.497,126.993 434.83,146.66 434.5,166.5C 449.676,166.171 464.676,166.504 479.5,167.5C 464.167,167.5 448.833,167.5 433.5,167.5C 433.5,147.5 433.5,127.5 433.5,107.5 Z"/></g>
<g><path style="opacity:0.227" fill="#2b3339" d="M 92.5,167.5 C 94.0269,167.427 95.0269,168.094 95.5,169.5C 93.9731,169.573 92.9731,168.906 92.5,167.5 Z"/></g>
<g><path style="opacity:0.522" fill="#3d586a" d="M 177.5,169.5 C 179.027,169.427 180.027,170.094 180.5,171.5C 178.973,171.573 177.973,170.906 177.5,169.5 Z"/></g>
<g><path style="opacity:0.243" fill="#2b353c" d="M 97.5,170.5 C 99.0269,170.427 100.027,171.094 100.5,172.5C 98.9731,172.573 97.9731,171.906 97.5,170.5 Z"/></g>
<g><path style="opacity:0.114" fill="#1a1c1e" d="M 481.5,168.5 C 482.117,168.611 482.617,168.944 483,169.5C 483.817,175.016 483.651,180.35 482.5,185.5C 482.74,179.773 482.407,174.106 481.5,168.5 Z"/></g>
<g><path style="opacity:0.552" fill="#506e81" d="M 720.5,173.5 C 708.087,173.187 695.753,173.521 683.5,174.5C 689.295,173.17 695.462,172.504 702,172.5C 708.343,172.5 714.509,172.834 720.5,173.5 Z"/></g>
<g><path style="opacity:0.894" fill="#385266" d="M 393.5,170.5 C 395.065,172.509 396.065,174.843 396.5,177.5C 394.166,175.824 393.166,173.491 393.5,170.5 Z"/></g>
<g><path style="opacity:0.148" fill="#222629" d="M 565.5,167.5 C 566.458,167.953 567.292,168.619 568,169.5C 568.817,175.016 568.651,180.35 567.5,185.5C 568.022,179.252 567.355,173.252 565.5,167.5 Z"/></g>
<g><path style="opacity:0.729" fill="#497a9d" d="M 101.5,172.5 C 103.451,172.227 104.951,172.893 106,174.5C 106.499,180.491 106.666,186.491 106.5,192.5C 108.167,192.5 109.833,192.5 111.5,192.5C 110.089,194.539 108.089,195.539 105.5,195.5C 105.666,188.825 105.5,182.158 105,175.5C 103.855,174.364 102.688,173.364 101.5,172.5 Z"/></g>
<g><path style="opacity:0.71" fill="#425d70" d="M 643.5,160.5 C 630.677,161.495 617.677,161.829 604.5,161.5C 604.826,170.349 604.493,179.016 603.5,187.5C 603.5,178.5 603.5,169.5 603.5,160.5C 616.833,160.5 630.167,160.5 643.5,160.5 Z"/></g>
<g><path style="opacity:0.2" fill="#272e34" d="M 148.5,178.5 C 146.784,178.629 145.117,178.962 143.5,179.5C 144.879,177.403 146.545,177.07 148.5,178.5 Z"/></g>
<g><path style="opacity:0.961" fill="#3f6a8a" d="M 302.5,172.5 C 302.969,175.393 301.969,177.393 299.5,178.5C 299.992,176.181 300.992,174.181 302.5,172.5 Z"/></g>
<g><path style="opacity:1" fill="#3792d0" d="M 148.5,178.5 C 149.035,180.446 150.368,181.446 152.5,181.5C 156.673,182.837 160.507,184.837 164,187.5C 164.667,194.833 164.667,202.167 164,209.5C 159.744,211.745 155.577,214.078 151.5,216.5C 150.417,216.461 149.417,216.127 148.5,215.5C 148.137,209.441 147.137,203.774 145.5,198.5C 144.833,198.5 144.5,198.167 144.5,197.5C 144.027,196.094 143.027,195.427 141.5,195.5C 139.03,195.346 137.03,194.346 135.5,192.5C 135.027,191.094 134.027,190.427 132.5,190.5C 131.892,188.316 132.559,186.316 134.5,184.5C 136.456,183.508 138.456,182.508 140.5,181.5C 142.027,181.573 143.027,180.906 143.5,179.5C 145.117,178.962 146.784,178.629 148.5,178.5 Z"/></g>
<g><path style="opacity:0.961" fill="#39556b" d="M 148.5,178.5 C 150.23,179.026 151.564,180.026 152.5,181.5C 150.368,181.446 149.035,180.446 148.5,178.5 Z"/></g>
<g><path style="opacity:0.659" fill="#3a4d5a" d="M 143.5,179.5 C 143.027,180.906 142.027,181.573 140.5,181.5C 140.973,180.094 141.973,179.427 143.5,179.5 Z"/></g>
<g><path style="opacity:0.982" fill="#3e698b" d="M 396.5,177.5 C 397.674,178.514 398.34,179.847 398.5,181.5C 397.883,181.611 397.383,181.944 397,182.5C 396.506,180.866 396.34,179.199 396.5,177.5 Z"/></g>
<g><path style="opacity:0.179" fill="#272b2f" d="M 184.5,173.5 C 185.496,173.414 186.329,173.748 187,174.5C 187.5,181.492 187.666,188.492 187.5,195.5C 186.672,189.013 186.172,182.346 186,175.5C 185.283,174.956 184.783,174.289 184.5,173.5 Z"/></g>
<g><path style="opacity:0.969" fill="#3d5e78" d="M 134.5,184.5 C 132.559,186.316 131.892,188.316 132.5,190.5C 130.91,190.372 129.577,189.705 128.5,188.5C 130.176,186.663 132.176,185.33 134.5,184.5 Z"/></g>
<g><path style="opacity:0.529" fill="#4b6476" d="M 578.5,186.5 C 586.445,187.437 594.445,187.77 602.5,187.5C 595.011,188.656 587.345,188.822 579.5,188C 578.944,187.617 578.611,187.117 578.5,186.5 Z"/></g>
<g><path style="opacity:0.537" fill="#48647a" d="M 679.5,184.5 C 679.489,186.017 678.823,187.184 677.5,188C 668.99,188.823 660.656,188.657 652.5,187.5C 660.507,187.666 668.507,187.5 676.5,187C 675.5,186.667 674.5,186.333 673.5,186C 675.586,185.685 677.586,185.185 679.5,184.5 Z"/></g>
<g><path style="opacity:0.361" fill="#364651" d="M 132.5,190.5 C 134.027,190.427 135.027,191.094 135.5,192.5C 133.973,192.573 132.973,191.906 132.5,190.5 Z"/></g>
<g><path style="opacity:0.443" fill="#394b57" d="M 141.5,195.5 C 143.027,195.427 144.027,196.094 144.5,197.5C 142.973,197.573 141.973,196.906 141.5,195.5 Z"/></g>
<g><path style="opacity:0.879" fill="#386281" d="M 145.5,198.5 C 147.137,203.774 148.137,209.441 148.5,215.5C 149.417,216.127 150.417,216.461 151.5,216.5C 150.152,217.601 148.652,218.601 147,219.5C 146.667,219.167 146.333,218.833 146,218.5C 145.5,211.842 145.334,205.175 145.5,198.5 Z"/></g>
</svg>
